# xmcd CD database file
#
# Track frame offsets:
#	150
#	16316
#	31949
#	48313
#	63611
#	79264
#	95630
#	123858
#	140364
#	151259
#	171519
#	183134
#	197292
#	216584
#	236107
#	252330
#	265235
#	279478
#	294683
#	311253
#
# Disc length: 4411 seconds
#
# Revision: 0
# Processed by: cddbd v1.5.1PL0 Copyright (c) Steve Scherf et al.
# Submitted via: CDex 1.51
#
DISCID=21113914
DTITLE=Laura Fygi - Song Book 
DYEAR=1900
DGENRE=Jazz
TTITLE0=Midnight Stroll
TTITLE1=Every Moment
TTITLE2=Change
TTITLE3=Girl Talk
TTITLE4=Enfant Terrible
TTITLE5=How do I Win Your Heart
TTITLE6=He Saw Her There
TTITLE7=Latin Eyes
TTITLE8=Loved You So Long
TTITLE9=You Can't Judge
TTITLE10=Remember Me
TTITLE11=No Small Talk Please
TTITLE12=Eternal Honey Moon
TTITLE13=I Belong
TTITLE14=Solamente Una Vez
TTITLE15=Cuando Vuelva A Tu Lado
TTITLE16=Historia De Un Amor
TTITLE17=La Mentira
TTITLE18=Piel Canela
TTITLE19=Noche De Ronda
EXTD=
EXTT0=
EXTT1=
EXTT2=
EXTT3=
EXTT4=
EXTT5=
EXTT6=
EXTT7=
EXTT8=
EXTT9=
EXTT10=
EXTT11=
EXTT12=
EXTT13=
EXTT14=
EXTT15=
EXTT16=
EXTT17=
EXTT18=
EXTT19=
PLAYORDER=
